0
SECTION
2
HEADER
9
$INSUNITS
70
4
9
$ACADVER
1
AC1014
9
$HANDSEED
5
FFFF
0
ENDSEC
0
SECTION
2
TABLES
0
TABLE
2
VPORT
5
8
100
AcDbSymbolTable
0
ENDTAB
0
TABLE
2
LTYPE
5
5
100
AcDbSymbolTable
0
LTYPE
5
14
100
AcDbSymbolTableRecord
100
AcDbLinetypeTableRecord
2
BYBLOCK
70
0
0
LTYPE
5
15
100
AcDbSymbolTableRecord
100
AcDbLinetypeTableRecord
2
BYLAYER
70
0
0
ENDTAB
0
TABLE
2
LAYER
5
2
100
AcDbSymbolTable
70
2
0
LAYER
5
50
100
AcDbSymbolTableRecord
100
AcDbLayerTableRecord
2
0
70
0
6
CONTINUOUS
0
ENDTAB
0
TABLE
2
STYLE
5
3
100
AcDbSymbolTable
70
1
0
STYLE
5
11
100
AcDbSymbolTableRecord
100
AcDbTextStyleTableRecord
2
STANDARD
70
0
0
ENDTAB
0
TABLE
2
VIEW
5
6
100
AcDbSymbolTable
70
0
0
ENDTAB
0
TABLE
2
UCS
5
7
100
AcDbSymbolTable
70
0
0
ENDTAB
0
TABLE
2
APPID
5
9
100
AcDbSymbolTable
70
2
0
APPID
5
12
100
AcDbSymbolTableRecord
100
AcDbRegAppTableRecord
2
ACAD
70
0
0
ENDTAB
0
TABLE
2
DIMSTYLE
5
A
100
AcDbSymbolTable
70
1
0
ENDTAB
0
TABLE
2
BLOCK_RECORD
5
1
100
AcDbSymbolTable
70
1
0
BLOCK_RECORD
5
1F
100
AcDbSymbolTableRecord
100
AcDbBlockTableRecord
2
*MODEL_SPACE
0
BLOCK_RECORD
5
1B
100
AcDbSymbolTableRecord
100
AcDbBlockTableRecord
2
*PAPER_SPACE
0
ENDTAB
0
ENDSEC
0
SECTION
2
BLOCKS
0
BLOCK
5
20
100
AcDbEntity
100
AcDbBlockBegin
2
*MODEL_SPACE
0
ENDBLK
5
21
100
AcDbEntity
100
AcDbBlockEnd
0
BLOCK
5
1C
100
AcDbEntity
100
AcDbBlockBegin
2
*PAPER_SPACE
0
ENDBLK
5
1D
100
AcDbEntity
100
AcDbBlockEnd
0
ENDSEC
0
SECTION
2
ENTITIES
0
LINE
5
100
100
AcDbEntity
8
0
100
AcDbLine
10
-33.999999572090353
20
50.000000060803529
30
0
11
-33.999999893022775
21
12.50000006080354
31
0
0
LINE
5
101
100
AcDbEntity
8
0
100
AcDbLine
10
-33.999999893022775
20
12.50000006080354
30
0
11
-49.999999893022782
21
12.50000008941678
31
0
0
LINE
5
102
100
AcDbEntity
8
0
100
AcDbLine
10
-49.999999893022782
20
12.50000008941678
30
0
11
-49.999999990634329
21
-19.999999910584016
31
0
0
ARC
5
103
100
AcDbEntity
8
0
100
AcDbCircle
10
2.7100960571025358e-07
20
6.6666670232582597
30
0
40
56.666667023258661
210
0
220
0
230
1
100
AcDbArc
50
208.07248704971985
51
331.92751235746812
0
LINE
5
104
100
AcDbEntity
8
0
100
AcDbLine
10
50.000000000000007
20
-20.000000000000007
30
0
11
50
21
12.5
31
0
0
LINE
5
105
100
AcDbEntity
8
0
100
AcDbLine
10
50
20
12.5
30
0
11
34
21
12.5
31
0
0
LINE
5
106
100
AcDbEntity
8
0
100
AcDbLine
10
34
20
12.5
30
0
11
34
21
50
31
0
0
LINE
5
107
100
AcDbEntity
8
0
100
AcDbLine
10
34
20
50
30
0
11
-33.999999572090353
21
50.000000060803529
31
0
0
LWPOLYLINE
5
108
100
AcDbEntity
8
0
100
AcDbPolyline
90
11
70
1
43
0.0
10
25.941528324701864
20
-41.217516692988099
10
24.916163494560564
20
-40.834148492115716
10
25.748571612048874
20
-41.545092187685512
10
24.819685138234078
20
-40.99793623946438
10
24.662394313074707
20
-41.264963072331383
42
-0.41421356237307566
10
23.293226789670271
20
-41.619053869812745
10
18.98508098746526
20
-39.081362055004632
10
20.507696076343464
20
-36.496474573686797
10
24.815841878559578
20
-39.034166388495294
42
-0.41421356237308388
10
25.169932676040112
20
-40.403333911896304
10
25.012641850887036
20
-40.670360744767052
0
LWPOLYLINE
5
109
100
AcDbEntity
8
0
100
AcDbPolyline
90
9
70
1
43
0.0
10
32.993618375595581
20
-37.239809036952252
10
30.996477165404606
20
-37.591958916593661
10
31.690077028790967
20
-39.497608879384565
10
30.4720142950435
20
-38.39443772077037
42
-0.34816533376375386
10
28.014426357835703
20
-38.757022426054746
10
22.81827393512911
20
-35.757022426054739
10
25.318273935129127
20
-31.426895407132545
10
30.514426357835696
20
-34.426895407132491
42
-0.34816533376375736
10
31.42921276063964
20
-36.736521345430901
0
LWPOLYLINE
5
110
100
AcDbEntity
8
0
100
AcDbPolyline
90
11
70
1
43
0.0
10
6.3864100360467688
20
-47.21987047834503
10
5.7585221666481443
20
-46.323153669205794
10
6.0418485526186814
20
-47.380542136772803
10
5.5862414249341361
20
-46.403489498419653
10
5.3053682731281526
20
-46.534462800068816
42
-0.41421356237307666
10
3.9764422243486832
20
-46.050773274772048
10
1.8633509156499828
20
-41.519234339586497
10
4.582274276752881
20
-40.251379554367752
10
6.6953655854605412
20
-44.78291848955994
42
-0.41421356237308449
10
6.2116760601650309
20
-46.111844538336115
10
5.9308029083621525
20
-46.242817839991915
0
LWPOLYLINE
5
111
100
AcDbEntity
8
0
100
AcDbPolyline
90
9
70
1
43
0.0
10
14.070612572646315
20
-48.85593808573995
10
12.292654256878684
20
-47.880516751870694
10
11.640790986331533
20
-49.800844022855031
10
11.381343482861306
20
-48.178083898411003
42
-0.34816533376375386
10
9.2377585071042798
20
-46.922596109014314
10
7.063130277402129
20
-41.330548893317527
10
11.723169623816149
20
-39.518358701899061
10
13.897797853518298
20
-45.110405917595784
42
-0.34816533376375702
10
13.165576487663341
20
-47.484233630173343
0
LINE
5
112
100
AcDbEntity
8
0
100
AcDbLine
10
54.923336386555839
20
-19.016629798471953
30
0
11
54.668836448968023
21
-17.393086386576122
31
0
0
LINE
5
113
100
AcDbEntity
8
0
100
AcDbLine
10
55.581050008568695
20
-17.098298403067798
30
0
11
54.923336386555839
21
-19.016629798471953
31
0
0
LWPOLYLINE
5
114
100
AcDbEntity
8
0
100
AcDbPolyline
90
4
70
1
43
0.0
10
-25.399999881665263
20
-3.5004202297546683
10
25.400000118334738
20
-3.5004202297546816
10
25.400000118334706
20
9.4995797702453189
10
-25.399999881665348
20
9.4995797702454006
0
LWPOLYLINE
5
115
100
AcDbEntity
8
0
100
AcDbPolyline
90
4
70
1
43
0.0
10
-26.499999919440775
20
-28.500420229754674
10
26.500000080559232
20
-28.50042022975467
10
26.500000080559218
20
-6.5004203548860424
10
-26.499999919440782
20
-6.5004202297546687
0
LINE
5
116
100
AcDbEntity
8
0
100
AcDbLine
10
2.1395482274755295e-07
20
50.000000030401765
30
0
11
-2.2141835032130075e-08
21
-50.000000000000412
31
0
0
LWPOLYLINE
5
117
100
AcDbEntity
8
0
100
AcDbPolyline
90
4
70
1
43
0.0
10
-25.399999876943376
20
11.499579770245401
10
25.400000123056632
20
11.499579839254883
10
25.400000123056621
20
24.499579770245418
10
-25.399999876943387
20
24.499579770245404
0
LWPOLYLINE
5
118
100
AcDbEntity
8
0
100
AcDbPolyline
90
11
70
1
43
0.0
10
-18.985080980191849
20
-39.081361965358354
10
-20.507696056864397
20
-36.496474476850828
10
-24.815841871063316
20
-39.034166271316558
42
0.41421356237308665
10
-25.169932675008972
20
-40.403333793045569
10
-25.012641851116779
20
-40.670360626659033
10
-25.94152832751524
20
-41.217516570493942
10
-24.916163495563701
20
-40.834148374463261
10
-25.748571616409038
20
-41.545092066102484
10
-24.819685140010613
20
-40.997936122267483
10
-24.66239431611211
20
-41.264962955877209
42
0.41421356237307339
10
-23.293226794379677
20
-41.619053759823686
0
LWPOLYLINE
5
119
100
AcDbEntity
8
0
100
AcDbPolyline
90
9
70
1
43
0.0
10
-28.014426349030796
20
-38.757022293772494
42
-0.34816533376375358
10
-30.47201428452648
20
-38.394437576883554
10
-31.690077023483056
20
-39.49760872974614
10
-30.996477151098347
20
-37.591958770230363
10
-32.993618359626488
20
-37.239808881158595
10
-31.429212742294045
20
-36.73652119702426
42
-0.34816533376375747
10
-30.514426328584207
20
-34.426895263045424
10
-25.31827389171184
20
-31.426895287581349
10
-22.8182739121584
20
-35.75702231830838
0
LWPOLYLINE
5
120
100
AcDbEntity
8
0
100
AcDbPolyline
90
9
70
1
43
0.0
10
-13.165576520067727
20
-47.484233568006367
10
-14.070612611527801
20
-48.855938019299458
10
-12.292654291154296
20
-47.880516693825598
10
-11.6407910296748
20
-49.800843967887999
10
-11.381343518542007
20
-48.178083844669047
42
0.34816533376375336
10
-9.2377585368566546
20
-46.922596065394238
10
-7.0631302807492276
20
-41.330548859965901
10
-11.72316961860621
20
-39.518358646543035
10
-13.897797874713628
20
-45.110405851971308
42
0.34816533376375802
0
LWPOLYLINE
5
121
100
AcDbEntity
8
0
100
AcDbPolyline
90
11
70
1
43
0.0
10
-6.3864100672028528
20
-47.219870448188829
10
-5.7585221935699931
20
-46.323153642014447
10
-6.0418485845334473
20
-47.380542108243603
10
-5.5862414522353259
20
-46.403489472041805
10
-5.3053683010477855
20
-46.534462775017218
42
0.41421356237307494
10
-3.9764422499843688
20
-46.050773255995558
10
-1.8633509198880449
20
-41.519234330787882
10
-4.5822742750042167
20
-40.25137953273056
10
-6.6953656051094939
20
-44.782918457944874
42
0.41421356237308482
10
-6.2116760860890903
20
-46.111844509004996
10
-5.9308029349046576
20
-46.242817811987067
0
CIRCLE
5
122
100
AcDbEntity
8
0
100
AcDbCircle
10
31.875000000000032
20
23.524999999999928
30
0
40
1.100000000000001
210
0
220
-0
230
1
0
CIRCLE
5
123
100
AcDbEntity
8
0
100
AcDbCircle
10
31.874999999999993
20
41.474999999999966
30
0
40
1.100000000000001
210
0
220
-0
230
1
0
LINE
5
124
100
AcDbEntity
8
0
100
AcDbLine
10
30.000000000000021
20
25.649999999999938
30
-1.1102230246251565e-15
11
22.000000000000011
21
25.649999999999924
31
-1.1102230246251565e-15
0
LINE
5
125
100
AcDbEntity
8
0
100
AcDbLine
10
34.000000000000036
20
21.399999999999942
30
0
11
29.750000000000032
21
21.399999999999931
31
0
0
LINE
5
126
100
AcDbEntity
8
0
100
AcDbLine
10
33.999999999999993
20
43.59999999999998
30
0
11
29.749999999999979
21
43.599999999999966
31
0
0
LINE
5
127
100
AcDbEntity
8
0
100
AcDbLine
10
29.999999999999996
20
39.349999999999959
30
-1.1102230246251565e-15
11
21.999999999999986
21
39.349999999999945
31
-1.1102230246251565e-15
0
LINE
5
128
100
AcDbEntity
8
0
100
AcDbLine
10
-33.999999626862852
20
43.600000060803552
30
0
11
-29.749999626862849
21
43.600000024431225
31
0
0
LINE
5
129
100
AcDbEntity
8
0
100
AcDbLine
10
29.750000000000032
20
21.399999999999931
30
0
11
29.750000000000028
21
25.649999999999938
31
0
0
LINE
5
130
100
AcDbEntity
8
0
100
AcDbLine
10
29.749999999999979
20
43.599999999999966
30
0
11
29.749999999999986
21
39.349999999999959
31
0
0
LINE
5
131
100
AcDbEntity
8
0
100
AcDbLine
10
21.999999999999986
20
39.349999999999945
30
-1.1102230246251565e-15
11
21.999999999999989
21
38.49999999999995
31
-1.1102230246251565e-15
0
LINE
5
132
100
AcDbEntity
8
0
100
AcDbLine
10
21.999999999999989
20
38.49999999999995
30
-1.1102230246251565e-15
11
10.000000000000009
21
38.499999999999908
31
-1.1102230246251565e-15
0
LINE
5
133
100
AcDbEntity
8
0
100
AcDbLine
10
10.000000000000009
20
38.499999999999908
30
-1.1102230246251565e-15
11
10.000000000000028
21
26.499999999999908
31
-1.1102230246251565e-15
0
LINE
5
134
100
AcDbEntity
8
0
100
AcDbLine
10
22.000000000000011
20
25.649999999999924
30
-1.1102230246251565e-15
11
22.000000000000011
21
26.499999999999922
31
-1.1102230246251565e-15
0
LINE
5
135
100
AcDbEntity
8
0
100
AcDbLine
10
22.000000000000011
20
26.499999999999922
30
-1.1102230246251565e-15
11
10.000000000000028
21
26.499999999999908
31
-1.1102230246251565e-15
0
LINE
5
136
100
AcDbEntity
8
0
100
AcDbLine
10
-29.99999962237894
20
39.350000141657951
30
-1.1102230246251565e-15
11
-21.99999962237893
21
39.350000103882472
31
-1.1102230246251565e-15
0
LINE
5
137
100
AcDbEntity
8
0
100
AcDbLine
10
-33.999999707137675
20
21.400000160545673
30
0
11
-29.749999707137675
21
21.400000140477438
31
0
0
LINE
5
138
100
AcDbEntity
8
0
100
AcDbLine
10
-21.999999683055798
20
26.500000103882453
30
-1.1102230246251565e-15
11
-9.9999996830558135
21
26.500000047219238
31
-1.1102230246251565e-15
0
LINE
5
139
100
AcDbEntity
8
0
100
AcDbLine
10
-21.99999962237893
20
39.350000103882472
30
-1.1102230246251565e-15
11
-21.999999626392576
21
38.500000103882478
31
-1.1102230246251565e-15
0
CIRCLE
5
140
100
AcDbEntity
8
0
100
AcDbCircle
10
-31.874999697103569
20
23.525000150511545
30
0
40
1.100000000000001
210
0
220
-0
230
1
0
LINE
5
141
100
AcDbEntity
8
0
100
AcDbLine
10
-21.999999626392576
20
38.500000103882478
30
-1.1102230246251565e-15
11
-9.9999996263925954
21
38.500000047219238
31
-1.1102230246251565e-15
0
LINE
5
142
100
AcDbEntity
8
0
100
AcDbLine
10
-33.999999602310716
20
43.600000160545704
30
0
11
-29.749999602310702
21
43.600000140477484
31
0
0
LINE
5
143
100
AcDbEntity
8
0
100
AcDbLine
10
-9.9999996263925954
20
38.500000047219238
30
-1.1102230246251565e-15
11
-9.9999996830558135
21
26.500000047219238
31
-1.1102230246251565e-15
0
LINE
5
144
100
AcDbEntity
8
0
100
AcDbLine
10
-29.749999602310702
20
43.600000140477484
30
0
11
-29.749999622378933
21
39.350000140477462
31
0
0
LINE
5
145
100
AcDbEntity
8
0
100
AcDbLine
10
-29.749999707137675
20
21.400000140477438
30
0
11
-29.749999687069458
21
25.650000140477445
31
0
0
LINE
5
146
100
AcDbEntity
8
0
100
AcDbLine
10
-21.99999968706944
20
25.650000103882455
30
-1.1102230246251565e-15
11
-21.999999683055798
21
26.500000103882453
31
-1.1102230246251565e-15
0
LINE
5
147
100
AcDbEntity
8
0
100
AcDbLine
10
-29.999999687069451
20
25.65000014165793
30
-1.1102230246251565e-15
11
-21.99999968706944
21
25.650000103882455
31
-1.1102230246251565e-15
0
CIRCLE
5
148
100
AcDbEntity
8
0
100
AcDbCircle
10
-31.87499961234483
20
41.475000150511583
30
0
40
1.100000000000001
210
0
220
-0
230
1
0
ENDSEC
0
SECTION
2
OBJECTS
0
DICTIONARY
5
C
100
AcDbDictionary
3
ACAD_GROUP
350
D
3
ACAD_MLINESTYLE
350
17
0
DICTIONARY
5
D
100
AcDbDictionary
0
DICTIONARY
5
1A
330
C
100
AcDbDictionary
0
DICTIONARY
5
17
100
AcDbDictionary
0
ENDSEC
0
EOF
